REM DIRINDEX 1\2\6,1\2\7,1\2\8,1\3\9,1\3\10,1\3\11,1\4\12,1\4\13,1\4\14,1\5\15,1\5\16,1\5\17,1\5\18
REM DIRNAME cjc019,folder01,folder02,folder03,folder04,folder05,folder06,folder07,folder08,folder09,folder10,folder11,folder12,folder13,folder14,folder15,folder16,folder17
TITLE ""
FILE "2Q_j_1555-1568.mp3" MP3
  TRACK 01 AUDIO
    TITLE "6:cjc019_1128"
    INDEX 01 00:00:00
  TRACK 02 AUDIO
    TITLE "0:"
    INDEX 01 00:01:42
  TRACK 03 AUDIO
    TITLE "7:cjc019_1129"
    INDEX 01 00:02:22
  TRACK 04 AUDIO
    TITLE "0:"
    INDEX 01 00:03:74
  TRACK 05 AUDIO
    TITLE "8:cjc019_1130"
    INDEX 01 00:04:52
  TRACK 06 AUDIO
    TITLE "0:"
    INDEX 01 00:08:66
  TRACK 07 AUDIO
    TITLE "6:cjc019_1131"
    INDEX 01 00:09:49
  TRACK 08 AUDIO
    TITLE "0:"
    INDEX 01 00:11:33
  TRACK 09 AUDIO
    TITLE "7:cjc019_1132"
    INDEX 01 00:12:18
  TRACK 10 AUDIO
    TITLE "0:"
    INDEX 01 00:13:47
  TRACK 11 AUDIO
    TITLE "8:cjc019_1133"
    INDEX 01 00:14:29
  TRACK 12 AUDIO
    TITLE "0:"
    INDEX 01 00:19:65
  TRACK 13 AUDIO
    TITLE "6:cjc019_1134"
    INDEX 01 00:20:45
  TRACK 14 AUDIO
    TITLE "0:"
    INDEX 01 00:22:42
  TRACK 15 AUDIO
    TITLE "7:cjc019_1135"
    INDEX 01 00:23:24
  TRACK 16 AUDIO
    TITLE "0:"
    INDEX 01 00:25:66
  TRACK 17 AUDIO
    TITLE "8:cjc019_1136"
    INDEX 01 00:26:38
  TRACK 18 AUDIO
    TITLE "0:"
    INDEX 01 00:32:05
  TRACK 19 AUDIO
    TITLE "6:cjc019_1137"
    INDEX 01 00:32:64
  TRACK 20 AUDIO
    TITLE "0:"
    INDEX 01 00:34:26
  TRACK 21 AUDIO
    TITLE "7:cjc019_1138"
    INDEX 01 00:35:08
  TRACK 22 AUDIO
    TITLE "0:"
    INDEX 01 00:38:02
  TRACK 23 AUDIO
    TITLE "8:cjc019_1139"
    INDEX 01 00:38:55
  TRACK 24 AUDIO
    TITLE "0:"
    INDEX 01 00:44:20
  TRACK 25 AUDIO
    TITLE "6:cjc019_1140"
    INDEX 01 00:45:00
  TRACK 26 AUDIO
    TITLE "0:"
    INDEX 01 00:46:23
  TRACK 27 AUDIO
    TITLE "7:cjc019_1141"
    INDEX 01 00:47:05
  TRACK 28 AUDIO
    TITLE "0:"
    INDEX 01 00:51:05
  TRACK 29 AUDIO
    TITLE "8:cjc019_1142"
    INDEX 01 00:51:52
  TRACK 30 AUDIO
    TITLE "0:"
    INDEX 01 00:54:74
  TRACK 31 AUDIO
    TITLE "6:cjc019_1143"
    INDEX 01 00:55:50
  TRACK 32 AUDIO
    TITLE "0:"
    INDEX 01 00:57:45
  TRACK 33 AUDIO
    TITLE "7:cjc019_1144"
    INDEX 01 00:58:28
  TRACK 34 AUDIO
    TITLE "0:"
    INDEX 01 01:00:39
  TRACK 35 AUDIO
    TITLE "8:cjc019_1145"
    INDEX 01 01:01:15
  TRACK 36 AUDIO
    TITLE "0:"
    INDEX 01 01:05:32
  TRACK 37 AUDIO
    TITLE "6:cjc019_1146"
    INDEX 01 01:06:12
  TRACK 38 AUDIO
    TITLE "0:"
    INDEX 01 01:08:11
  TRACK 39 AUDIO
    TITLE "7:cjc019_1147"
    INDEX 01 01:08:66
  TRACK 40 AUDIO
    TITLE "0:"
    INDEX 01 01:11:17
  TRACK 41 AUDIO
    TITLE "8:cjc019_1148"
    INDEX 01 01:11:70
  TRACK 42 AUDIO
    TITLE "0:"
    INDEX 01 01:17:08
  TRACK 43 AUDIO
    TITLE "6:cjc019_1149"
    INDEX 01 01:17:61
  TRACK 44 AUDIO
    TITLE "0:"
    INDEX 01 01:19:38
  TRACK 45 AUDIO
    TITLE "7:cjc019_1150"
    INDEX 01 01:20:22
  TRACK 46 AUDIO
    TITLE "0:"
    INDEX 01 01:21:29
  TRACK 47 AUDIO
    TITLE "8:cjc019_1151"
    INDEX 01 01:22:09
  TRACK 48 AUDIO
    TITLE "0:"
    INDEX 01 01:27:20
  TRACK 49 AUDIO
    TITLE "6:cjc019_1152"
    INDEX 01 01:28:02
  TRACK 50 AUDIO
    TITLE "0:"
    INDEX 01 01:29:39
  TRACK 51 AUDIO
    TITLE "7:cjc019_1153"
    INDEX 01 01:30:17
  TRACK 52 AUDIO
    TITLE "0:"
    INDEX 01 01:31:36
  TRACK 53 AUDIO
    TITLE "8:cjc019_1154"
    INDEX 01 01:32:13
  TRACK 54 AUDIO
    TITLE "0:"
    INDEX 01 01:36:68
  TRACK 55 AUDIO
    TITLE "6:cjc019_1155"
    INDEX 01 01:37:46
  TRACK 56 AUDIO
    TITLE "0:"
    INDEX 01 01:39:17
  TRACK 57 AUDIO
    TITLE "7:cjc019_1156"
    INDEX 01 01:39:72
  TRACK 58 AUDIO
    TITLE "0:"
    INDEX 01 01:41:14
  TRACK 59 AUDIO
    TITLE "8:cjc019_1157"
    INDEX 01 01:41:67
  TRACK 60 AUDIO
    TITLE "0:"
    INDEX 01 01:46:33
  TRACK 61 AUDIO
    TITLE "6:cjc019_1158"
    INDEX 01 01:47:11
  TRACK 62 AUDIO
    TITLE "0:"
    INDEX 01 01:48:65
  TRACK 63 AUDIO
    TITLE "7:cjc019_1159"
    INDEX 01 01:49:53
  TRACK 64 AUDIO
    TITLE "0:"
    INDEX 01 01:53:35
  TRACK 65 AUDIO
    TITLE "8:cjc019_1160"
    INDEX 01 01:54:13
  TRACK 66 AUDIO
    TITLE "0:"
    INDEX 01 01:59:57
  TRACK 67 AUDIO
    TITLE "6:cjc019_1161"
    INDEX 01 02:00:37
  TRACK 68 AUDIO
    TITLE "0:"
    INDEX 01 02:01:62
  TRACK 69 AUDIO
    TITLE "7:cjc019_1162"
    INDEX 01 02:02:46
  TRACK 70 AUDIO
    TITLE "0:"
    INDEX 01 02:04:15
  TRACK 71 AUDIO
    TITLE "8:cjc019_1163"
    INDEX 01 02:04:72
  TRACK 72 AUDIO
    TITLE "0:"
    INDEX 01 02:10:71
  TRACK 73 AUDIO
    TITLE "6:cjc019_1164"
    INDEX 01 02:11:53
  TRACK 74 AUDIO
    TITLE "0:"
    INDEX 01 02:13:09
  TRACK 75 AUDIO
    TITLE "7:cjc019_1165"
    INDEX 01 02:13:67
  TRACK 76 AUDIO
    TITLE "0:"
    INDEX 01 02:17:26
  TRACK 77 AUDIO
    TITLE "8:cjc019_1166"
    INDEX 01 02:18:08
  TRACK 78 AUDIO
    TITLE "0:"
    INDEX 01 02:22:74
  TRACK 79 AUDIO
    TITLE "6:cjc019_1167"
    INDEX 01 02:23:60
  TRACK 80 AUDIO
    TITLE "0:"
    INDEX 01 02:25:14
  TRACK 81 AUDIO
    TITLE "7:cjc019_1168"
    INDEX 01 02:26:03
  TRACK 82 AUDIO
    TITLE "0:"
    INDEX 01 02:27:65
  TRACK 83 AUDIO
    TITLE "8:cjc019_1169"
    INDEX 01 02:28:45
  TRACK 84 AUDIO
    TITLE "0:"
    INDEX 01 02:33:68
